<svg width="40" height="34" viewBox="0 0 40 34" xmlns="http://www.w3.org/2000/svg"><title>Fill 110</title><path d="M.83.01c.367.016.847.04 1.19.033.343-.006.707.088 1.09.1.386.01.693.237 1.225.23.532-.006.85.477 1.39.497.54.02.978.394 1.454.397.475.002.766.356 1.157.396.39.04.74.374 1.157.463.416.09.136.463.695.595.557.133.876.505 1.288.53.413.027.582.582.926.662.344.08.32.472.86.695.54.222.674.523.992.694.32.172.29.465.662.596.372.13.65.532 1.025.728.375.195 1.53.384 2.414.43.884.045 1.6.064 2.414.562.814.497 1.01.497.86.265-.15-.232-.76-.817-1.156-1.19-.397-.373-.626-.566-1.125-1.058-.5-.493-.248-.502.595-.33 1.283.28 1.808.822 2.612.99.804.17 1.488.8 2.248 1.158.76.36.124-.663-.066-1.058s-.778-1.04-1.257-1.488c-.48-.447-.82-1.072-1.687-1.52-.868-.45-1.506-1.1-2.116-1.357-.61-.258-.827-.515-.53-.53.298-.013.808-.012 1.39.232.58.244 1.047.5 1.653.76.606.26.913.596 1.587.794.675.197.762.77 1.39.992.626.222.642.688 1.19 1.058.547.37.75.9 1.29 1.224.54.323.758 1.085 1.157 1.422.4.336.32 1.016.695 1.223.375.207.563.29.992 1.257.428.966.538 0 .43-.33-.11-.332-.306-.968.364-.133.67.835.848 2.092.925 2.745.077.652.53.618.794.992s.482.4.364.033c-.117-.366-.24-.74.133-.496s.54.53.695 1.555c.156 1.024.727 1.74 1.488 1.95.76.215.04.81-.397.795-.438-.015-.64.264-.167.695.475.43.824.784 1.423 1.355.598.572.644.23.53-.165-.116-.395-.052-.572.43-.2.48.375.926.705 1.917 2.482.99 1.777.418 2.338.363 3.77-.054 1.432-.194 2.213-.595 3.11-.4.894-.398.567-.792.064-.394-.5-.74.476-.63.795.112.32.36.73.3 1.82-.063 1.088-.436.458-.63.066-.193-.392-.36-.74-.43.133-.07.872-.926 2.15-.926 2.15s-.19-.29-.396-1.092c-.206-.802-.53-1.85-.53-1.85l-.76 1.123s-.548-1.203-.728-2.116c-.18-.913-1.256-1.13-2.28-1.82-1.027-.688-2.262-.332-2.912.034-2.196 1.417-4.1 1.9-5.092 1.456-.993-.443-1.41.14-1.786.827-.376.687.017 1.467-.695 2.38-.71.915-1.856.55-3.042.497-1.185-.053-3.397.744-4.96.53-1.562-.215-3.132-1.857-3.472-2.713-.34-.855-1.593-1.685-2.68-1.686-1.085 0-.653-1.13-.793-1.62-.14-.49-.992-.947-.925-1.256.066-.31.54-.574.86-.96.318-.385.896-1.078.33-.925-.566.15-1.058.13-1.058.13s.215-.284.63-.958c.41-.674.746-1.066 1.486-1.62.74-.555 1.662-1.158.893-1.257-.767-.1-1.357.347-2.148.463 1.03-1.818 4.38-3.043 5.225-3.605-.344-.45-2.844-.066-2.844-.066s.537-.836 1.918-1.455c-.385-.482-2.645-1.025-2.645-1.025s.492-.26 1.49-.364c.995-.103 1.57-.063 3.173.264-.412-.17-1.488-1.52-1.488-1.52s1.984.806 2.58.892C11.79 11.46 4.3 10.9 3.44 10.79c4.36-1.795 10.98-.43 10.98-.43s-.732-1.005-.993-1.322c-.26-.318-.9-.566-1.522-.76-.62-.195-1.643 0-2.182-.2-.54-.2-1.615-.297-2.117-.33.988-.668 4.133-.66 4.133-.66s-.4-.688-.694-.894c-.295-.207-1.392-1.008-1.82-1.356-.43-.347-.953-.592-1.323-.893-.37-.3-.955-.527-1.39-.86-.433-.332-1.664-.772-2.15-1.09-.483-.32-1.17-.317-1.652-.63-.48-.312-1.59-.322-1.952-.495C.403.696.048.518.003.24-.042-.035.463-.006.83.01" fill="#FFF" fill-rule="evenodd"/></svg>