<svg width="301" height="336" viewBox="0 0 301 336" xmlns="http://www.w3.org/2000/svg"><title>Fill 114</title><path d="M197.03 275.4s1.816 1.737 4.738 4.06c3.355 2.668 8.167 6.113 13.372 8.594 9.74 4.645 16.873 11.91 16.873 11.91s-2.373 12.48-5.46 15.88c-3.083 3.4-4.723.624-6.45.495-1.728-.132-3.116 3.274-3.723 4.713-.4.95-2.148 2.028-3.334 3.164-3.58-.41-7.348-.986-11.278-1.74-5.654-1.082-11.645-2.534-17.89-4.402-2.945-1.293-5.68-2.556-8.234-3.787-1.087-.525-2.14-1.045-3.165-1.56l-.958-.485.957-1.085c1.012-1.147 2.077-2.352 3.164-3.53 1.975-2.134 4.028-4.184 6.002-5.68 5.633-4.266 10.26-10.666 11.413-11.91 1.153-1.24-1.245-4.976.495-7.44 1.742-2.47 3.476-7.198 3.476-7.198zm-24.55 45.853c-.997.237-1.95.372-3.236.187-.237-.035-.485-.082-.748-.138-2.355-.52-4.98-1.57-2.34-3.7 1.01.497 2.04.995 3.088 1.49 1.058.5 2.137.997 3.235 1.488l.958.425c-.33.088-.65.174-.96.248zm-10.92-14.488c-.627-.375-1.246-.747-1.844-1.117-.672-.414-1.323-.824-1.964-1.23-1.85-1.182-3.572-2.342-5.204-3.488-5.417-3.806-9.794-7.443-14.325-11.092.1-.34.183-.69.252-1.04.803-4.117-2.394-5.748-3.72-6.448-.893-2.33-2.65-2.574-3.72-2.235-.676.216-2.767.157-4.218.088-.856-.042-1.49-.088-1.49-.088s.55-1.095 1.49-2.38c.865-1.19 2.067-2.536 3.47-3.328 2.924-1.644 12.21-10.378 16.128-12.404 2.084-1.077 4.413-3.12 6.133-4.793 1.508-1.468 2.552-2.65 2.552-2.65s.968 1.244 2.652 2.455c.575.412 1.234.822 1.964 1.176 1.368.665 2.994 1.136 4.812 1.084-.327-.595-1.557-1.1-2.73-1.985 2.99-.014 5.503-.925 7.446-2.875 1.096-1.1 2.012-2.533 2.725-4.322.17-.426.34-.816.51-1.174 1.064-2.28 2.086-3.223 3.164-3.593.724-.246 1.476-.237 2.28-.195l-2.23-.746s3.07-1.677 3.967-.247c.652 1.035-1.71 3.535-4.016 5.988-.874.932-1.742 1.86-2.434 2.695-.217.264-.463.55-.73.862-.938 1.087-2.132 2.46-3.236 4.037-2.252 3.224-4.103 7.295-2.483 11.476 1.192 3.076 1.953 4.998 2.484 6.566.64 1.906.937 3.29 1.237 5.59.545 4.193 4.73 11.385-.99 17.865l-.246.273c-1.99 2.21-4.79 4.795-7.685 7.272zm-44.67-35.333c-.455.62-.903 1.162-1.34 1.643-4.542-3.645-8.7-7.45-12.682-11.35.665-.602 1.46-1.082 2.856-1.708 3.287-1.467 5.326-4.934 5.212-7.442-1.925 2.082-5.453 4.467-7.444 3.97-1.212-.303-2.803-1.013-4.134-.71-.372.083-.723.25-1.04.522-.135.12-.265.255-.388.417l-.27-.278c.203-.806.396-1.477.657-2.057.26-.57.584-1.055 1.04-1.492.814-.774 2.06-1.4 4.135-2.11 5.102-1.744 2.976-4.465 2.976-4.465s-2.177 3.476-7.11 3.707c-.19.01-.38.013-.582.013-.158-.002-.31.015-.46.048-1.442.325-2.268 2.186-2.268 2.186s2.352-7.158 2.235-9.923c-.038-.86-.045-1.42.034-1.824.117-.577.408-.852 1.04-1.26.353-.227.812-.497 1.407-.886 2.408-1.578 4.434-1.585 6.2.992 1.66 2.418 12.003 12.685 19.853 14.412.506.112 1.002.19 1.486.224.05.95-.535 2.337-1.486 3.953-2.435 4.138-7.26 9.777-9.928 13.417zm-17.924-4.475l.392.4.396.41c-.15-.017-.282-.05-.396-.102-.282-.125-.434-.357-.392-.708zm9.24 13.652c-1.837 4.365-5.933 7.66-8.68 8.933l-.168.074c-.43.188-.76.29-1.04.338-1.364.243-1.357-.787-4.75 1.076-4.165 2.288-7.445 2.235-7.445 2.235s8.185-18.685 10.668-23.572c.553.32 1.063.583 1.527.793.373.168.718.3 1.04.403 1.424.45 2.41.29 3.13-.38.608.597 1.12 1.08 1.5 1.417 1.252 1.105 3.573 3.025 6.526 5.432-.9.808-1.68 1.76-2.308 3.25zM87.862 110.656c.538-5.888 3.775-5.447 6.2-6.203 1.155-.36 2.767-.85 4.254-1.2.36-.083.707-.16 1.04-.223 1.2-.228 2.21-.31 2.647-.067 0 0 1.602 8.552 7.444 11.662 5.84 3.112 11.278 5.494 14.39 9.18.915 1.09 1.96 2.42 2.98 3.754 2.432 3.193 4.712 6.418 4.712 6.418l-1.243 1.488s-1.4-.165-3.47-.423c-4.888-.607-13.518-1.712-16.376-2.305l3.225-2.977s-11.823.126-14.14 0c-.057 0-.112-.008-.167-.02-.317-.053-.672-.206-1.04-.435-2.404-1.49-5.408-6.113-2.022-5.996.707.023 1.384.086 2.02.17.364.05.708.104 1.042.165 2.45.443 4.134 1.152 4.134 1.152s-.062-1.57-4.134-3.23c-.32-.132-.664-.263-1.04-.393-1.56-.55-3.593-1.096-6.238-1.585-.824-.306-4.754-3.047-4.217-8.933zm64.685 37.82c.808-1.114 1.814-2.282 2.8-2.838 1.637-.924 1.94-2.483 2.404-3.894.156-.464.328-.913.572-1.316.582-.96 1.08-1.994 1.392-2.683.216-.48.344-.79.344-.79s3.76 6.114 3.228 8.186c-1.46.835-2.698 1.153-3.572 1.852-.36.29-.665.643-.896 1.126-.245.518-.568.93-1.068 1.272-.92.633-2.44 1.04-5.204 1.466-.51.08-1.066.16-1.668.24 0 0 .69-1.27 1.668-2.62zm0-26.417c.253-.73.774-1.194 1.808-1.23 0 0-.017.58.248 1.983.26 1.404 1.094 2.908.248 4.964-.634 1.533-1.833 2.64-2.304 1.71-.16-.314-.235-.864-.177-1.71.146-2.16-.284-4.383.178-5.717zm5.204-27.174c.775-.49 1.546-.858 1.812-.605.41.395-.495 2.54-1.812 2.89-.582.158-1.244-.04-1.908-.903 0 0 .954-.78 1.908-1.38zm1.964 29.877c.13-.327.25-.65.344-.958.445-1.49.496-1.736.496-1.736.758 2.806-.076 3.983-.496 6.202-.093.49-.213.843-.344 1.083-.468.85-1.09.272-1.143-.836-.057-1.125.633-2.494 1.143-3.757zm10.517 123.594c.08.666-.283 1.436-.99 2.185-1.032 1.097-2.796 2.15-4.962 2.776-3.648 1.056-4.947.458-4.22-1.488 0 0 5.905-1.847 9.184-3.083.365-.14.7-.27.99-.39zm-.99-15.19c1.46-1.13 2.516-1.475 3.236-1.517.85-.047 1.225.33 1.225.33s-.5-.084-1.226.145c-.906.29-2.157 1.064-3.236 3.1-.357.675-.696 1.486-.994 2.462-1.94 6.318-6.702 8.188-6.702 8.188 2.104 0 4.913-1.117 7.696-2.747 1.096-.64 2.188-1.36 3.235-2.123.59-.432 1.17-.878 1.725-1.332.466-.38.947-.682 1.44-.92 3.754-1.806 7.985.177 7.985.177s-.238.216-4.712.247c-1.3.01-2.34.485-3.274 1.23-1.123.892-2.09 2.166-3.165 3.468-.94 1.136-1.962 2.29-3.236 3.23-.24.178-.49.347-.748.507-2.33 1.442-5.887 2.253-8.78 2.703-.704.108-1.365.196-1.964.267-1.722.2-2.9.257-2.9.257s-.538-1.973.496-4.22c1.033-2.245.992-8.437.992-8.437s.574-1.052 1.412-2.19c.462-.62 1-1.266 1.564-1.778.138-.125.273-.273.4-.44 1.347-1.757 2.08-5.514 2.08-5.514s1.264 1.816.497 5.46c-.483 2.297-1.436 4.016-2.577 5.876-.613 1.002-1.284 2.045-1.964 3.24l-.172.31c.06-.002.113-.002.172.002.455.02.962.156 1.964-.424 1.12-.648 2.85-2.187 5.804-5.78 1.454-1.772 2.69-2.97 3.724-3.776zm72.826 71.09c1.53 1.274 2.967 2.6 4.212 3.95 2.012 2.19 3.513 4.444 4.092 6.643.7 2.676-.796 4.984-4.092 6.72-.66.35-1.4.677-2.205.978-.752-4.874-2.347-13.912-2.008-18.29zm41.798-138.52c-8.302-10.672-23.108-24.71-37.586-37.797-17.007-15.372-33.56-29.427-38.583-35.148-2.077-2.362-4.075-4.843-5.932-7.273-6.47-8.463-11.19-16.298-11.19-16.298s-.13-2.304 4.465-.497c2.163.85 4.546 2.167 6.725 3.63 2.448 1.65 4.633 3.487 5.93 5.054 2.152 2.598-2.18-6.414-5.93-9.684-.524-.455-1.035-.8-1.513-.985-3.934-1.523-7.84-4.714-9.677-4.714-1.835 0-3.245 1.4-7.195-.495-2.395-1.148-5.292-2.317-7.74-2.37-1.204-.025-2.296.223-3.164.877-.28.207-.53.455-.76.75-1.098 1.424-2.044 3.55-2.476 5.857-.307 1.64-.35 3.368 0 5 .23 1.073.63 2.102 1.237 3.037.487.746 1.18 1.767 2 2.978.933 1.388 2.032 3.028 3.164 4.782 3.677 5.692 7.714 12.623 7.74 16.307.04 5.767.504 31.608-7.74 39.505-.065.063-.13.13-.2.192-1.13 1.025-2.11 1.858-2.965 2.534-1.39 1.1-2.44 1.784-3.236 2.194-2.387 1.23-2.483-.014-2.483-.014s-5.783-10.77-5.955-13.645c-.17-2.874 1.832-3.655 1.24-9.924-.59-6.27 1.154-10.303-.744-14.64-.612-1.405-1.167-2.62-1.584-3.696-.872-2.25-1.15-3.91-.152-5.483.056-.085.103-.17.152-.26 1.26-2.33.344-5.696.344-5.696s2.585-7.14 4.965-8.93c.94-4.66-4.22 2.728-4.22 2.728s-.1-8.297.992-10.917c-.886.312-1.554 1.04-2.08 1.985-1.02 1.833-1.5 4.493-1.965 6.59-.272 1.242-.544 2.29-.915 2.838 1.75-11.573.277-18.783-1.242-20.095.473 3.572-1.76 9.466-3.047 11.74-.16.28-.303.506-.428.665-2.628-5.803-3.614-18.363.428-28.5.52-1.296 1.12-2.555 1.808-3.754 4.47-7.775 1.77-19.502-1.808-26.085-1.283-2.365-2.68-4.065-3.9-4.683.178 3.442 3.024 6.838 3.9 12.443.305 1.96.372 4.19 0 6.783-.373 2.615-1.193 5.602-2.66 9.058-3.194 7.493-6.835 13.667-6.45 21.34-.024-13.64-4.97-21.27-6.7-22.58 4.42 10.372 1.24 17.865 1.24 17.865s-6.552-5.013-7.94-14.14c-.547-3.615-1.243-8.94-3.22-14.983C123.792 19.952 117.78 9.046 104.73 0c3.625 4.703 19.943 22.964 18.858 48.876 0 0-3.648-12.574-5.957-12.9 1.385 3.362 1.488 9.18 1.488 9.18s-2.737-1.678-3.47-4.467c-.734-2.787-3.645-13.406-6.698-14.144.017 3.16 4.085 11.992 2.977 12.903-5.11-4.29-8.758-11.267-12.572-15.784-.345-.41-.692-.797-1.04-1.16-.5-.527-1.01-1.002-1.527-1.417-3.06-2.463-.65 3.074 1.527 7.464.363.727.718 1.42 1.04 2.043.805 1.55 1.407 2.65 1.407 2.65-.442-.008-.91-.204-1.406-.558-.334-.24-.68-.547-1.04-.92C94.025 27.28 88.255 13.735 83.89 7.69c1.502 6.232 5.275 21.686 2.978 26.05-3.114-8.34-6.216-15.65-6.202-21.833-3.882 6.317-.52 21.988 1.488 24.81l-4.71-.745s-5.294-11.086-12.41-10.42c3.96 3.33 7.94 10.916 7.94 10.916l-4.712 1.74s-3.63-9.178-8.933-10.174C55.665 20.893 48.366 13.8 43.2 14.886c5.29 5.39 13.104 16.067 13.4 19.848-3.6-.726-8.567-2.8-11.412-7.195-1.823 4.215 7.768 11.373 12.405 12.405L55.36 42.18s-9.138-6.5-15.385-4.47c4.827 3.267 11.85 5.9 11.413 10.422l-4.215 2.978s-4.042.932-13.15-8.187C32.702 48.56 44.69 54.09 44.69 54.09l-1.242 2.48s-6.066-5.603-12.405-.25c5.76.23 9.43 1.985 9.43 1.985s-10.515 8.846-11.91 18.61c2.5-4.174 5.708-6.452 5.708-6.452l-1.24 9.18s-3.74 2.9-5.21 7.94c2.014-2.546 4.963-3.97 4.963-3.97s-3.186 27.966 5.953 44.412c6.903 12.42 8.174 21.954 12.032 30.136-1.73.208-4.41.046-8.312-1.357-8.06-2.895-10.266-3.734-14.886-7.193-4.618-3.46-12.845-8.833-15.133-3.724-2.29 5.113 1.95 4.134 3.224 9.18 1.276 5.05 12.12 8.228 15.135 8.19-4.16-2.172-12.108-6.943-10.173-8.436 1.94-1.493 9.212 3.643 12.657 6.7 3.44 3.055 10.833 4.933 15.38 7.195 3.125 1.552 10.16 6.477 14.25 9.407-2.38 6.86-5.386 17.535-.11 30.29 6.193 14.958 11.45 12.713 12.406 18.854.504 3.2-.02 4.526-.372 6.334-12.722-11.712-20.284-16.402-29.15-17.002-9.783-.658-18.682 3.49-25.062 3.723-6.376.23-10.01.516-13.645 6.203 3.22-2.36 10.42-3.473 10.42-3.473s-2.017.766-3.472 3.72c-1.456 2.956-9.18 7.445-9.18 7.445s.947-.56 6.7.744c-15.56 8.608-9.676 20.344-9.676 20.344s1.838-6.448 6.2-10.42c-3.683 7.652 4.467 17.615 4.467 17.615s-.306-5.137-.186-10.64c-.06-1.33-.01-2.742.187-4.248-.1 1.387-.158 2.83-.186 4.25.43 9.563 6.83 14.726 9.864 16.84 3.45 2.406 10.67 8.684 10.67 8.684s-1.163-1.703-2.237-5.21c2.8 1.856 14.038 3.955 18.113 2.976-6.507-.083-14.14-4.715-14.14-4.715s2.465.328 8.184 1.49c-3.22-.476-13.398-9.18-13.398-9.18s2.02 1.61 4.965.744c-12.85-6.975-7.196-29.026-7.196-29.026l5.71 7.69s-6.526-13.718 5.207-18.856c11.734-5.14 26.86 9.162 31.512 13.148 1.065.916 3.204 3.054 5.92 5.854.614 1.876 2.337 7.38 2.268 10.026-.086 3.218-3.906 18.048-3.228 22.826.683 4.78-2.35 16.227-4.217 22.082-1.867 5.854-1.83 14.913-7.692 17.865-5.863 2.95-7.034 5.202-11.165 2.23-4.126-2.97-7.292-3.026-8.684-.744-1.39 2.283-2.553 2.778-5.457.993-2.904-1.786-3.71.685-5.46 2.73-1.746 2.042-4.344 5.323-3.968 6.45.374 1.126 2.23-1.24 2.23-1.24s.294 2.8 1.985 2.48c1.695-.32 1.74-1.737 1.74-1.737s3.352.696 4.216-.993c.866-1.688 2.19-1.504 3.474.25 1.285 1.75 3.124 2.194 6.204.743 3.08-1.452 3.64-1.148 6.95-.993 3.302.157 9.013-.535 13.644-.496 4.625.037 10.617-.48 19.105.496 8.485.976 9.16-.62 10.67-.743.11-.01.2-.03.28-.06.466-.16.42-.634 0-1.217-.485-.68-1.48-1.517-2.764-2.197-2.574-1.363-4.762 1.28-6.947-.248-2.187-1.525-8.91-5.143-8.932-10.916-.02-5.776 2.73-8.686 2.73-8.686s4.84 3.746 7.195-1.488c0 0 1.577-1.897 7.19-2.234-1.965 2.534-7.735 7.858-6.695 10.42-2.036 2.77-3.176 8.873-.247 11.664.26-2.952.974-6.404 2.975-7.445 1.71.39 3.883-.507 5.494-1.982.384-.35.735-.73 1.04-1.133.384-.503.695-1.042.91-1.598 1.116-2.883 2.07-10.31 9.18-11.414-.27 3.818-1.345 8.247-3.474 9.926-2.126 1.677-1.15 5.602 0 6.2-.283 3.06-.72 6.564 1.24 6.452 1.554-3.597 2.484-6.204 2.484-6.204 1.94-.056 2.576-.998 2.976-4.217.4-3.216 2.177-9.187 4.464-10.916 2.29-1.728 4.207-6.148 5.71-9.675 0 0 .068-.04.192-.106l3.777 3.028 5.76 4.62c-.17.3-.35.596-.55.89.498.12 1.02.076 1.536-.102 2.945 2.365 5.728 4.604 8.14 6.554 2.76 2.237 6.424 4.848 10.845 7.598.922.57 1.872 1.15 2.86 1.733-1.03.8-2 1.527-2.86 2.157-1.827 1.338-3.18 2.234-3.652 2.407-1.71.628-5.685-.19-6.946 1.735-1.264 1.926-2.084 1.48-4.22-.247-2.134-1.727-4.76-1.587-6.696-.25-1.702 1.176-2.564 1.574-4.217 1.03-.234-.076-.478-.17-.747-.285-2.178-.923-4.08-.786-5.457 2.233-1.38 3.02-1.116 4.116 0 4.218 1.114.103.924-1.75 2.48-2.233 1.558-.48 3.22-.006 3.473 1.49.04.234.127.373.25.445.67.382 2.47-1.25 4.218-.942 2.07.368 3.69-.566 5.208.497 1.52 1.062 3.036-.8 4.713-.248 1.682.552 3.728-.877 5.956 0 2.23.878 2.3-.01 5.46 0l.178.002c2.19.02 3.333.247 5.204.106.572-.044 1.21-.122 1.964-.25.19-.033.386-.067.593-.107 3.78-.716 4.738.472 6.7.744.718.102 1.47.145 2.234.19 1.072.067 2.167.136 3.235.367.244.052.488.115.73.187.79.24 1.63.352 2.434.403 1.272.084 2.468.024 3.274.096 1.32.115-.396-1.18-1.49-2.482-.133-.158-.254-.32-.364-.48 7.545 3.126 15.857 5.96 24.704 8.118 4.65 1.132 9.452 2.08 14.364 2.783 12.168 1.738 22.165 2.583 30.15 2.11 14.338-.85 22.184-5.945 24.434-17.742 3.51-18.37-4.103-28.88-13.646-38.457-4.594-4.612-7.812-11.57-9.913-17.548-.108-1.163-.207-2.21-.26-3.044-.058-1.008-.275-2.42-.615-4.135-1.044-5.272-3.245-13.43-5.585-21.668-3.103-10.916-2.56-23.192-10.668-27.044-8.114-3.85-12.54-12.81-18.362-19.105-5.223-5.645-5.928-11.12-9.9-15.79-.46-.537-.96-1.062-1.513-1.577-4.72-4.373-4.624-13.76 1.513-16.092.863-.327 1.846-.517 2.952-.53 8.968-.118 15.632 18.36 15.632 18.36v-9.924s22.213 35.165 25.802 58.552c.046-.165.086-.332.128-.503.806-3.41.665-7.812 0-12.367-1.372-9.398-4.967-19.456-7.073-22.855-3.184-5.133 1.002-5.42 6.944 4.712l.128.218c6.104 10.385 26.724 43.973 22.946 81.66 7.954-7.89 3.49-43.146 2.98-48.63-.514-5.486 6.455-4.545 10.417 9.674 3.965 14.223 12.08 43.106 2.732 60.787 13.383-15.618 12.94-44.4 14.142-55.08 1.2-10.68 2.42-48.5-15.632-71.703z" fill="#000" fill-rule="evenodd"/></svg>