<?xml version="1.0" encoding="UTF-8" standalone="no"?>
<svg width="301px" height="336px" viewBox="0 0 301 336" version="1.1" xmlns="http://www.w3.org/2000/svg" xmlns:xlink="http://www.w3.org/1999/xlink" xmlns:sketch="http://www.bohemiancoding.com/sketch/ns">
    <!-- Generator: Sketch 3.3.3 (12072) - http://www.bohemiancoding.com/sketch -->
    <title>Fill 114</title>
    <desc>Created with Sketch.</desc>
    <defs></defs>
    <g id="Page-1" stroke="none" stroke-width="1" fill="none" fill-rule="evenodd" sketch:type="MSPage">
        <g id="Desktop-V2" sketch:type="MSArtboardGroup" transform="translate(-89.000000, -832.000000)" fill="#000000">
            <g id="Form-Inputs-Option-2" sketch:type="MSLayerGroup" transform="translate(0.000000, 832.000000)">
                <path d="M286.031244,275.400002 C286.031244,275.400002 287.846007,277.137028 290.767857,279.459318 C294.123071,282.128299 298.934741,285.572865 304.140459,288.054204 C313.879066,292.698784 321.013026,299.9632 321.013026,299.9632 C321.013026,299.9632 318.639805,312.443163 315.552651,315.843052 C312.469966,319.242942 310.830334,316.467631 309.10403,316.338963 C307.375045,316.207614 305.98739,319.613758 305.379788,321.053238 C304.980379,322.002169 303.231737,323.080663 302.04602,324.217235 C298.46653,323.806211 294.697612,323.230776 290.767857,322.478422 C285.11448,321.394568 279.123347,319.942578 272.877557,318.075096 C269.933369,316.782155 267.197374,315.5187 264.643659,314.288307 C263.557124,313.76291 262.502756,313.242874 261.478768,312.727306 L260.521795,312.243012 L261.478768,311.158264 C262.492034,310.010968 263.557124,308.806487 264.643659,307.628812 C266.619258,305.494163 268.671702,303.443507 270.645514,301.947734 C276.279234,297.682012 280.90505,291.281642 282.059493,290.038738 C283.213043,288.796729 280.814803,285.061765 282.55451,282.596509 C284.296898,280.129467 286.031244,275.400002 286.031244,275.400002 L286.031244,275.400002 Z M261.478768,321.253389 C260.483373,321.490175 259.529081,321.625099 258.244182,321.440138 C258.007396,321.40529 257.758994,321.357933 257.496296,321.30164 C255.140945,320.781604 252.514854,319.731704 255.157028,317.60063 C256.16672,318.099221 257.196962,318.596918 258.244182,319.092829 C259.302124,319.592313 260.380617,320.089117 261.478768,320.579666 L262.437528,321.004988 C262.106921,321.093447 261.788824,321.179226 261.478768,321.253389 L261.478768,321.253389 Z M250.558912,306.764766 C249.932546,306.390376 249.314222,306.017773 248.715555,305.647851 C248.043619,305.234146 247.393128,304.824014 246.752465,304.418351 C244.902854,303.236208 243.180124,302.07551 241.547641,300.930001 C236.131049,297.123555 231.753635,293.486879 227.223427,289.837694 C227.323503,289.497258 227.405708,289.14878 227.475403,288.798516 C228.277795,284.68112 225.080737,283.04953 223.754736,282.349895 C222.862097,280.02135 221.105413,279.775629 220.034068,280.115171 C219.358558,280.330512 217.267693,280.272432 215.81749,280.202737 C214.960593,280.160741 214.326185,280.115171 214.326185,280.115171 C214.326185,280.115171 214.876601,279.0197 215.81749,277.734801 C216.682429,276.544616 217.88423,275.198957 219.287075,274.407288 C222.210712,272.763188 231.498085,264.028912 235.41533,262.003275 C237.499047,260.925675 239.827591,258.882167 241.547641,257.210368 C243.055923,255.742295 244.099568,254.561046 244.099568,254.561046 C244.099568,254.561046 245.068157,255.803949 246.752465,257.014685 C247.327007,257.426603 247.98554,257.836734 248.715555,258.190573 C250.083553,258.855361 251.709782,259.326252 253.528119,259.274428 C253.201087,258.679335 251.970693,258.173596 250.796592,257.288999 C253.787244,257.27649 256.30075,256.365087 258.244182,254.4154 C259.339652,253.314568 260.256416,251.882236 260.968561,250.093385 C261.141013,249.66717 261.310784,249.276697 261.478768,248.919284 C262.543858,246.640777 263.566059,245.697207 264.643659,245.327285 C265.368313,245.08067 266.119774,245.089605 266.924846,245.131601 L264.692803,244.386395 C264.692803,244.386395 267.76298,242.709236 268.660979,244.138887 C269.312364,245.175384 266.948972,247.674594 264.643659,250.128233 C263.769785,251.060187 262.902165,251.98678 262.209677,252.823126 C261.993443,253.086718 261.746828,253.373541 261.478768,253.685384 C260.542347,254.771919 259.347694,256.145278 258.244182,257.722362 C255.991587,260.946226 254.141082,265.017159 255.761056,269.197995 C256.952134,272.273533 257.713424,274.196414 258.244182,275.763669 C258.884844,277.670467 259.181497,279.054548 259.48083,281.3545 C260.024991,285.546952 264.211189,292.738992 258.48901,299.218887 L258.244182,299.493202 C256.253392,301.7038 253.453063,304.287895 250.558912,306.764766 L250.558912,306.764766 Z M205.888561,271.431826 C205.434647,272.05283 204.986987,272.594311 204.549156,273.075031 C200.008226,269.430314 195.850621,265.623867 191.868149,261.72628 C192.532936,261.123146 193.329074,260.643319 194.723877,260.016953 C198.011182,258.549773 200.050222,255.082868 199.93585,252.574724 C198.011182,254.656654 194.482624,257.042384 192.491834,256.544687 C191.280204,256.24178 189.688824,255.532315 188.358354,255.835222 C187.985751,255.918321 187.634593,256.084518 187.317389,256.357045 C187.18336,256.475885 187.052904,256.611702 186.929597,256.774325 L186.65975,256.496436 C186.863475,255.69047 187.056478,255.018534 187.317389,254.438632 C187.57562,253.868558 187.900866,253.385157 188.358354,252.94822 C189.171469,252.173528 190.417946,251.547162 192.491834,250.838591 C197.593902,249.093523 195.468189,246.372717 195.468189,246.372717 C195.468189,246.372717 193.290652,249.848557 188.358354,250.079982 C188.168032,250.088917 187.976816,250.093385 187.775771,250.093385 C187.617616,250.090704 187.465716,250.107682 187.317389,250.140742 C185.874335,250.465094 185.047818,252.326322 185.047818,252.326322 C185.047818,252.326322 187.400488,245.168236 187.283435,242.402754 C187.245013,241.542283 187.237865,240.983825 187.317389,240.579055 C187.434442,240.002727 187.72484,239.728413 188.358354,239.320068 C188.709512,239.093111 189.168788,238.823264 189.76388,238.433684 C192.171949,236.855707 194.197587,236.848559 195.9641,239.425505 C197.625176,241.844297 207.966917,252.110981 215.81749,253.838178 C216.323229,253.94987 216.819139,254.026713 217.30254,254.062455 C217.353472,255.011386 216.768208,256.399041 215.81749,258.015441 C213.381721,262.153388 208.555754,267.792469 205.888561,271.431826 L205.888561,271.431826 Z M187.966094,266.957017 L188.358354,267.358213 L188.754189,267.765663 C188.603182,267.74958 188.471833,267.716519 188.358354,267.664694 C188.075998,267.540493 187.924098,267.308175 187.966094,266.957017 L187.966094,266.957017 Z M197.205216,280.609294 C195.369007,284.975092 191.273056,288.271332 188.524551,289.542828 L188.358354,289.616991 C187.927672,289.804633 187.597959,289.907389 187.317389,289.954746 C185.953859,290.197787 185.961008,289.167545 182.567373,291.031453 C178.40262,293.318001 175.123357,293.265283 175.123357,293.265283 C175.123357,293.265283 183.308111,274.579739 185.791237,269.693012 C186.342546,270.012003 186.852753,270.276489 187.317389,270.485575 C187.689992,270.653559 188.034896,270.785802 188.358354,270.888558 C189.780858,271.339792 190.766423,271.178956 191.485717,270.508807 C192.095106,271.107473 192.606206,271.589087 192.987744,271.926842 C194.238689,273.032142 196.560086,274.952342 199.513209,277.358624 C198.613422,278.168164 197.831582,279.120669 197.205216,280.609294 L197.205216,280.609294 Z M176.863064,110.656805 C177.40097,104.769321 180.638237,105.209833 183.064177,104.453905 C184.217727,104.093811 185.829658,103.604156 187.317389,103.253891 C187.676589,103.170792 188.024173,103.094842 188.358354,103.030508 C189.557474,102.801764 190.566272,102.720452 191.004103,102.963493 C191.004103,102.963493 192.606206,111.514595 198.448119,114.624981 C204.287351,117.737153 209.726281,120.11931 212.838454,123.80513 C213.753431,124.894345 214.79797,126.223921 215.81749,127.558858 C218.249684,130.753235 220.529978,133.977993 220.529978,133.977993 L219.287075,135.465724 C219.287075,135.465724 217.88691,135.301314 215.81749,135.043083 C210.928976,134.436375 202.299242,133.331076 199.440833,132.73777 L202.664697,129.761415 C202.664697,129.761415 190.842374,129.885616 188.524551,129.761415 C188.468259,129.758734 188.41286,129.751586 188.358354,129.740864 C188.04115,129.687252 187.686418,129.534458 187.317389,129.30482 C184.913788,127.815302 181.909733,123.192167 185.29622,123.309219 C186.003004,123.333345 186.680301,123.395892 187.317389,123.480778 C187.680163,123.529922 188.024173,123.584427 188.358354,123.645187 C190.807526,124.088379 192.491834,124.79695 192.491834,124.79695 C192.491834,124.79695 192.43018,123.227014 188.358354,121.566832 C188.037576,121.435482 187.693566,121.304133 187.317389,121.173678 C185.757282,120.624155 183.72539,120.078207 181.079642,119.589445 C180.255805,119.283857 176.326051,116.543394 176.863064,110.656805 L176.863064,110.656805 Z M241.547641,148.477339 C242.356287,147.363104 243.361511,146.195257 244.34797,145.639481 C245.984921,144.715568 246.286935,143.157248 246.752465,141.746361 C246.90794,141.281724 247.080392,140.833171 247.324326,140.430188 C247.906015,139.468748 248.402819,138.435825 248.715555,137.746911 C248.93179,137.267085 249.060459,136.956135 249.060459,136.956135 C249.060459,136.956135 252.818655,143.070576 252.287897,145.142677 C250.826972,145.978129 249.590323,146.296227 248.715555,146.994969 C248.354568,147.285367 248.050768,147.638312 247.820236,148.120819 C247.575408,148.638174 247.25195,149.049199 246.752465,149.392315 C245.833021,150.024936 244.312229,150.4306 241.547641,150.857708 C241.03654,150.937232 240.481657,151.016757 239.88031,151.098962 C239.88031,151.098962 240.569223,149.828359 241.547641,148.477339 L241.547641,148.477339 Z M241.547641,122.060061 C241.801404,121.330046 242.322333,120.866303 243.35615,120.828774 C243.35615,120.828774 243.339173,121.411357 243.603658,122.813309 C243.865463,124.217048 244.698235,125.720863 243.85206,127.77688 C243.217652,129.310181 242.019426,130.416374 241.547641,129.4871 C241.388592,129.172577 241.312642,128.623055 241.370721,127.77688 C241.516367,125.617213 241.085685,123.394105 241.547641,122.060061 L241.547641,122.060061 Z M246.752465,94.8859627 C247.527158,94.3963071 248.298276,94.0281718 248.563655,94.2810414 C248.973786,94.6750891 248.068638,96.8213532 246.752465,97.1707243 C246.169882,97.3279859 245.507775,97.1287283 244.843881,96.2673633 C244.843881,96.2673633 245.798173,95.4873098 246.752465,94.8859627 L246.752465,94.8859627 Z M248.715555,124.762996 C248.846905,124.435963 248.966638,124.114292 249.060459,123.80513 C249.504544,122.315612 249.556369,122.068997 249.556369,122.068997 C250.314084,124.876475 249.480419,126.053256 249.060459,128.271897 C248.966638,128.760659 248.846905,129.115391 248.715555,129.354858 C248.248238,130.206394 247.62634,129.627385 247.572728,128.519405 C247.516435,127.395342 248.206242,126.025557 248.715555,124.762996 L248.715555,124.762996 Z M259.233322,248.357252 C259.312846,249.022934 258.950072,249.793158 258.244182,250.541938 C257.211259,251.639196 255.446533,252.691776 253.280611,253.318143 C249.632319,254.374297 248.333124,253.775631 249.060459,251.829518 C249.060459,251.829518 254.964919,249.983481 258.244182,248.746832 C258.608743,248.608335 258.943818,248.476985 259.233322,248.357252 L259.233322,248.357252 Z M258.244182,233.1681 C259.701533,232.035995 260.759475,231.691985 261.478768,231.649989 C262.330304,231.602631 262.704694,231.980596 262.704694,231.980596 C262.704694,231.980596 262.206103,231.89571 261.478768,232.125348 C260.57362,232.413959 259.322675,233.188651 258.244182,235.225904 C257.886769,235.899627 257.54812,236.710955 257.249681,237.686692 C255.308929,244.004857 250.54819,245.87502 250.54819,245.87502 C252.652458,245.87502 255.460829,244.758105 258.244182,243.128302 C259.339652,242.48764 260.431549,241.767453 261.478768,241.00527 C262.07118,240.5728 262.651082,240.126928 263.205072,239.673014 C263.670602,239.293262 264.152216,238.991249 264.643659,238.754463 C268.399174,236.946847 272.630049,238.929595 272.630049,238.929595 C272.630049,238.929595 272.392369,239.14583 267.917561,239.177103 C266.619258,239.186039 265.578294,239.662291 264.643659,240.40571 C263.521383,241.299242 262.553687,242.572525 261.478768,243.875295 C260.539666,245.010974 259.518359,246.166311 258.244182,247.105414 C258.003822,247.283227 257.754526,247.452104 257.496296,247.612046 C255.16507,249.054207 251.608812,249.864641 248.715555,250.314981 C248.012346,250.423098 247.351132,250.510665 246.752465,250.582147 C245.029735,250.782298 243.85206,250.838591 243.85206,250.838591 C243.85206,250.838591 243.314154,248.866565 244.34797,246.620226 C245.380894,244.37478 245.339791,238.183495 245.339791,238.183495 C245.339791,238.183495 245.914332,237.130915 246.752465,235.994342 C247.214421,235.372443 247.751434,234.727313 248.316147,234.215319 C248.453751,234.090225 248.588674,233.941899 248.715555,233.773914 C250.063002,232.018124 250.796592,228.260821 250.796592,228.260821 C250.796592,228.260821 252.060046,230.076479 251.292502,233.718515 C250.809995,236.01668 249.856596,237.735836 248.715555,239.59617 C248.102592,240.597819 247.43155,241.641465 246.752465,242.837011 L246.580014,243.146173 C246.638987,243.144386 246.693492,243.144386 246.752465,243.14796 C247.207273,243.168511 247.713906,243.304328 248.715555,242.724426 C249.836045,242.075721 251.565029,240.537059 254.51994,236.943273 C255.973717,235.172292 257.211259,233.973172 258.244182,233.1681 L258.244182,233.1681 Z M331.068837,304.258409 C332.601244,305.530798 334.03715,306.8568 335.281841,308.207821 C337.294075,310.396081 338.795209,312.651356 339.374218,314.850338 C340.073853,317.525573 338.578081,319.833567 335.281841,321.5697 C334.620627,321.919964 333.883463,322.246997 333.077497,322.548117 C332.325143,317.6739 330.730188,308.635822 331.068837,304.258409 L331.068837,304.258409 Z M372.868269,165.736805 C364.566462,155.065351 349.759741,141.026174 335.281841,127.939503 C318.275244,112.56807 301.721668,98.5128095 296.699124,92.7915234 C294.622555,90.429918 292.624617,87.9485793 290.767857,85.5190655 C284.296898,77.0573163 279.578155,69.2219332 279.578155,69.2219332 C279.578155,69.2219332 279.447699,66.9184074 284.043135,68.7251293 C286.206376,69.5757719 288.589426,70.8919447 290.767857,72.3555503 C293.216135,74.0050106 295.400822,75.8421126 296.699124,77.409368 C298.849855,80.0077594 294.518012,70.9955944 290.767857,67.7261604 C290.244248,67.2713526 289.733147,66.9273427 289.255108,66.7405945 C285.320886,65.2171222 281.415257,62.026319 279.578155,62.026319 C277.74284,62.026319 276.332846,63.4264839 272.382541,61.5313022 C269.987875,60.3822199 267.091043,59.2125864 264.643659,59.1607615 C263.439178,59.1348491 262.347281,59.383251 261.478768,60.0373165 C261.20088,60.2437225 260.949797,60.4921244 260.721053,60.78699 C259.622008,62.2112802 258.675758,64.3360996 258.244182,66.644093 C257.936807,68.2828309 257.893917,70.0118156 258.244182,71.6434052 C258.474713,72.7165373 258.874122,73.7458863 259.48083,74.6814144 C259.966912,75.4257267 260.658506,76.4470339 261.478768,77.6577699 C262.412509,79.0463188 263.511554,80.6859503 264.643659,82.4399538 C268.321437,88.1317534 272.357522,95.062882 272.382541,98.746915 C272.42275,104.513771 272.88828,130.35472 264.643659,138.251757 C264.579325,138.315198 264.51499,138.382213 264.445295,138.443866 C263.314977,139.468748 262.332985,140.302413 261.478768,140.977923 C260.091113,142.076968 259.040319,142.762307 258.244182,143.172438 C255.856664,144.401939 255.761056,143.158142 255.761056,143.158142 C255.761056,143.158142 249.977223,132.386612 249.804771,129.513013 C249.635,126.63852 251.637405,125.858466 251.0441,119.589445 C250.455262,113.318637 252.199437,109.28702 250.300681,104.949815 C249.687718,103.545182 249.132835,102.329979 248.715555,101.254166 C247.844362,99.0042522 247.56558,97.3449631 248.563655,95.7705595 C248.619947,95.6847804 248.667305,95.5990013 248.715555,95.5105416 C249.977223,93.1811034 249.060459,89.8142744 249.060459,89.8142744 C249.060459,89.8142744 251.644554,82.6740592 254.024923,80.8825273 C254.964919,76.2245444 249.804771,83.6122679 249.804771,83.6122679 C249.804771,83.6122679 249.704695,75.3149287 250.796592,72.6950925 C249.911101,73.0069352 249.242739,73.7342704 248.715555,74.6796274 C247.696929,76.5131553 247.217102,79.1732004 246.752465,81.2685332 C246.479938,82.5123299 246.208304,83.558656 245.836595,84.1081783 C247.586131,72.5351503 246.114483,65.3252396 244.595479,64.0126409 C245.068157,67.5849823 242.835221,73.4787202 241.547641,75.7527594 C241.388592,76.032435 241.244733,76.2593921 241.119639,76.4175473 C238.491761,70.6149498 237.506195,58.0554623 241.547641,47.9183404 C242.066783,46.6218253 242.667237,45.3628386 243.35615,44.1637185 C247.826491,36.3890955 245.126237,24.66238 241.547641,18.0788353 C240.265422,15.7154429 238.867044,14.0150513 237.647373,13.396727 C237.826079,16.8386128 240.671979,20.2349283 241.547641,25.8400553 C241.853229,27.8004648 241.920244,30.0289339 241.547641,32.6228576 C241.175038,35.2382261 240.354775,38.225304 238.886702,41.6814862 C235.694112,49.1728595 232.052968,55.3471665 232.438081,63.0190332 C232.413955,49.3792654 227.468255,41.7511817 225.738377,40.4412637 C230.15868,50.812491 226.9786,58.3047578 226.9786,58.3047578 C226.9786,58.3047578 220.426329,53.2920426 219.03778,44.1637185 C218.490938,40.5502746 217.794876,35.2257167 215.81749,29.1818654 C212.792884,19.9534657 206.7812,9.04611916 193.732057,0 C197.357116,4.70265954 213.6748,22.9637754 212.590052,48.8762069 C212.590052,48.8762069 208.94176,36.3024229 206.632873,35.9753901 C208.017848,39.3377515 208.121498,45.1555391 208.121498,45.1555391 C208.121498,45.1555391 205.382822,43.4783793 204.649232,40.6887721 C203.915642,37.9027389 201.004514,27.2840032 197.952209,26.5459457 C197.969186,29.7054753 202.037438,38.5380402 200.928564,39.449443 C195.819348,35.1587018 192.171949,28.1828965 188.358354,23.6660917 C188.013451,23.256854 187.665867,22.869061 187.317389,22.5053935 C186.817905,21.979103 186.307698,21.503744 185.791237,21.089145 C182.729102,18.6274641 185.140745,24.1637891 187.317389,28.5537124 C187.680163,29.2810475 188.034896,29.975322 188.358354,30.5972203 C189.16164,32.1474985 189.76388,33.246543 189.76388,33.246543 C189.322476,33.2393948 188.854265,33.0428177 188.358354,32.688979 C188.024173,32.4512995 187.676589,32.1430309 187.317389,31.7686409 C183.025755,27.2822162 177.256218,13.7362692 172.891313,7.69152447 C174.392447,13.923911 178.16494,29.3784425 175.867669,33.7433469 C172.753709,25.401331 169.652259,18.0913448 169.665662,11.9089961 C165.784159,18.2271617 169.145627,33.897928 171.154287,36.7197024 L166.442692,35.9753901 C166.442692,35.9753901 161.150301,24.8893371 154.034212,25.554125 C157.992559,28.8852128 161.974138,36.4713005 161.974138,36.4713005 L157.26165,38.2092204 C157.26165,38.2092204 153.631229,29.031752 148.329009,28.0363573 C144.666421,20.8934615 137.367157,13.7988165 132.199861,14.8853516 C137.491358,20.2769244 145.304403,30.9528461 145.600162,34.734274 C142.001015,34.0078324 137.032976,31.9330508 134.18797,27.5386599 C132.365164,31.7552379 141.956338,38.9133237 146.592876,39.9453533 L144.359939,42.1791836 C144.359939,42.1791836 135.221786,35.6787375 128.975103,37.7106295 C133.801964,40.9773829 140.82602,43.608835 140.388189,48.1318946 L136.172505,51.1100371 C136.172505,51.1100371 132.131059,52.0419911 123.022392,42.9234959 C121.703539,48.559003 133.691166,54.0890732 133.691166,54.0890732 L132.448263,56.5686249 C132.448263,56.5686249 126.382073,50.967072 120.043356,56.3202229 C125.803064,56.5507542 129.471907,58.3047578 129.471907,58.3047578 C129.471907,58.3047578 118.957715,67.1507257 117.562911,76.9143512 C120.063908,72.7406627 123.270794,70.4630493 123.270794,70.4630493 L122.030572,79.6423047 C122.030572,79.6423047 118.289353,82.5444971 116.818599,87.5831247 C118.833514,85.0365581 121.783063,83.6122679 121.783063,83.6122679 C121.783063,83.6122679 118.596728,111.57893 127.735774,128.025282 C134.639203,140.444485 135.909806,149.979366 139.768078,158.16144 C138.039093,158.367846 135.358497,158.206116 131.456442,156.803271 C123.394995,153.908227 121.189758,153.0692 116.570197,149.610337 C111.951529,146.150581 103.724779,140.776879 101.437337,145.886095 C99.1463207,150.998886 103.387024,150.020468 104.661201,155.067138 C105.936271,160.114701 116.781071,163.293888 119.794954,163.255466 C115.633775,161.084183 107.686701,156.312722 109.622091,154.819629 C111.561949,153.326537 118.833514,158.46256 122.278974,161.519333 C125.719966,164.575213 133.113051,166.452524 137.660236,168.714947 C140.784917,170.267013 147.818802,175.192162 151.911179,178.122054 C149.53081,184.982593 146.524074,195.656728 151.801275,208.411899 C157.992559,223.369627 163.249208,221.125074 164.206181,227.26632 C164.710133,230.466952 164.186524,231.79206 163.833578,233.599676 C151.112362,221.88815 143.550399,217.198 134.68388,216.59844 C124.900597,215.939907 116.001911,220.08947 109.622091,220.320895 C103.245846,220.550533 99.6118509,220.835569 95.9769622,226.522901 C99.1981455,224.163083 106.398227,223.049742 106.398227,223.049742 C106.398227,223.049742 104.379738,223.816393 102.925068,226.77041 C101.468611,229.726214 93.744919,234.215319 93.744919,234.215319 C93.744919,234.215319 94.692063,233.654181 100.445516,234.958738 C84.8846545,243.56792 90.7685635,255.304464 90.7685635,255.304464 C90.7685635,255.304464 92.6083461,248.855843 96.9696764,244.884093 C93.286537,252.536302 101.437337,262.499185 101.437337,262.499185 C101.437337,262.499185 101.130855,257.363162 101.251482,251.860792 C101.189829,250.529429 101.24076,249.117648 101.437337,247.612046 C101.337261,248.998808 101.279182,250.440969 101.251482,251.860792 C101.681271,261.425159 108.078961,266.587988 111.11429,268.701191 C114.565111,271.108367 121.783063,277.386324 121.783063,277.386324 C121.783063,277.386324 120.621472,275.683251 119.546552,272.175244 C122.347776,274.032004 133.584836,276.130911 137.660236,275.152493 C131.152641,275.069395 123.519196,270.437324 123.519196,270.437324 C123.519196,270.437324 125.985345,270.765251 131.70395,271.926842 C128.483661,271.45059 118.30633,262.747587 118.30633,262.747587 C118.30633,262.747587 120.325712,264.356838 123.270794,263.491006 C110.420909,256.5152 116.074287,234.463721 116.074287,234.463721 L121.783063,242.154352 C121.783063,242.154352 115.258492,228.435954 126.991462,223.298144 C138.724432,218.158547 153.851038,232.460422 158.501872,236.446469 C159.566962,237.362339 161.706078,239.499668 164.42331,242.299998 C165.036273,244.175522 166.759002,249.680573 166.690201,252.326322 C166.603528,255.543931 162.783678,270.373884 163.461869,275.152493 C164.144528,279.931103 161.112773,291.379037 159.245291,297.234353 C157.377809,303.087881 157.416231,312.14651 151.552873,315.09874 C145.690409,318.049183 144.518988,320.301778 140.388189,317.330783 C136.261858,314.359789 133.096073,314.30439 131.70395,316.586471 C130.315402,318.869446 129.151129,319.363569 126.24715,317.579185 C123.34317,315.793908 122.537204,318.264525 120.787669,320.308926 C119.040813,322.352434 116.443315,325.633484 116.818599,326.759334 C117.193882,327.886078 119.050642,325.519112 119.050642,325.519112 C119.050642,325.519112 119.343721,328.318548 121.035177,327.999557 C122.730207,327.681459 122.774884,326.263424 122.774884,326.263424 C122.774884,326.263424 126.126523,326.959486 126.991462,325.269816 C127.855508,323.581934 129.178829,323.766002 130.463728,325.519112 C131.748627,327.271328 133.58841,327.713627 136.667521,326.263424 C139.747527,324.811434 140.308665,325.115235 143.616521,325.269816 C146.919909,325.427078 152.631366,324.735484 157.26165,324.773906 C161.887465,324.811434 167.878598,324.294973 176.367153,325.269816 C184.852134,326.246447 185.525858,324.650599 187.035927,324.527291 C187.145831,324.517462 187.237865,324.497805 187.317389,324.468318 C187.78292,324.305695 187.73735,323.833017 187.317389,323.24954 C186.832202,322.568669 185.836807,321.733216 184.552801,321.053238 C181.978535,319.689708 179.791168,322.331883 177.606482,320.804836 C175.419116,319.279577 168.695287,315.661665 168.673842,309.888554 C168.654184,304.113656 171.402689,301.204316 171.402689,301.204316 C171.402689,301.204316 176.243846,304.950002 178.599197,299.715691 C178.599197,299.715691 180.177174,297.818723 185.791237,297.481861 C183.824572,300.015918 178.055036,305.339582 179.095107,307.902233 C177.058747,310.672182 175.9186,316.775006 178.847599,319.565507 C179.109403,316.614171 179.821549,313.161563 181.82306,312.120598 C183.532387,312.511071 185.706351,311.613071 187.317389,310.13785 C187.700715,309.789372 188.051873,309.408728 188.358354,309.004851 C188.740786,308.501793 189.051735,307.962993 189.26797,307.407216 C190.383098,304.523788 191.33739,297.095855 198.448119,295.993236 C198.177379,299.811299 197.10246,304.239644 194.973173,305.918591 C192.84746,307.596645 193.822303,311.521931 194.973173,312.120598 C194.689923,315.180052 194.252092,318.684485 196.211608,318.5719 C197.767248,314.974539 198.696521,312.368106 198.696521,312.368106 C200.636379,312.311814 201.272574,311.370031 201.672876,308.150634 C202.072285,304.933919 203.849521,298.963337 206.136963,297.234353 C208.427979,295.506261 210.343712,291.085958 211.84574,287.559187 C211.84574,287.559187 211.914542,287.519871 212.038743,287.45375 L215.81749,290.48193 L221.576304,295.101491 C221.40832,295.401718 221.22604,295.698371 221.025889,295.993236 C221.525373,296.111183 222.046302,296.068293 222.562764,295.89048 C225.507846,298.254766 228.291198,300.493958 230.701948,302.443645 C233.462962,304.681049 237.127337,307.29195 241.547641,310.042242 C242.469766,310.613209 243.420484,311.192218 244.406944,311.774801 C243.376701,312.574512 242.408112,313.301847 241.547641,313.931787 C239.721261,315.270298 238.366666,316.165618 237.895775,316.338963 C236.187342,316.968009 232.211124,316.150428 230.95035,318.075096 C229.686002,320.000657 228.865739,319.554785 226.730198,317.827587 C224.595549,316.101283 221.969459,316.240674 220.034068,317.579185 C218.331889,318.75418 217.469631,319.151802 215.81749,318.607641 C215.583384,318.531691 215.338557,318.436976 215.070497,318.322604 C212.892066,317.399585 210.989736,317.537189 209.612803,320.556434 C208.234083,323.575679 208.496781,324.672043 209.612803,324.773906 C210.727037,324.876662 210.536715,323.023477 212.093248,322.540969 C213.650675,322.059355 215.313538,322.533821 215.566407,324.029594 C215.606616,324.263699 215.693289,324.40309 215.81749,324.474573 C216.485852,324.857004 218.284532,323.223628 220.034068,323.53279 C222.103488,323.900925 223.722569,322.967184 225.242467,324.029594 C226.761471,325.092003 228.277795,323.230776 229.954955,323.782085 C231.636583,324.334288 233.682771,322.904637 235.91124,323.782085 C238.139709,324.659534 238.208511,323.771363 241.370721,323.782085 L241.547641,323.783872 C243.738582,323.802637 244.881409,324.031381 246.752465,323.890203 C247.324326,323.84642 247.960521,323.767789 248.715555,323.640014 C248.904984,323.606953 249.101561,323.572999 249.308861,323.53279 C253.091182,322.817071 254.048155,324.005468 256.008565,324.277102 C256.727858,324.378965 257.479318,324.421854 258.244182,324.468318 C259.315527,324.533546 260.410997,324.603241 261.478768,324.833773 C261.72449,324.886491 261.968424,324.949038 262.209677,325.020521 C263.001347,325.259987 263.83948,325.371679 264.643659,325.42261 C265.916049,325.507496 267.111595,325.446736 267.917561,325.519112 C269.237308,325.635271 267.521726,324.341436 266.428936,323.037773 C266.294906,322.879618 266.174279,322.716995 266.064375,322.557053 C273.60936,325.684415 281.920996,328.517806 290.767857,330.675686 C295.417799,331.807791 300.21964,332.755828 305.13228,333.459038 C317.299507,335.197852 327.297238,336.043133 335.281841,335.570455 C349.62035,334.720706 357.466456,329.624892 359.71637,317.827587 C363.226164,299.459248 355.61327,288.948629 346.070347,279.370858 C341.475805,274.757552 338.258196,267.798724 336.156608,261.821888 C336.049385,260.658509 335.950203,259.611289 335.897484,258.777624 C335.839405,257.76972 335.622276,256.358832 335.281841,254.643251 C334.238195,249.370518 332.037425,241.211676 329.697265,232.975097 C326.594028,222.058815 327.138189,209.783471 319.029385,205.93056 C310.916113,202.078543 306.489555,193.11999 300.668193,186.825056 C295.444605,181.17972 294.739608,175.705049 290.767857,171.036344 C290.308582,170.498438 289.809098,169.973041 289.255108,169.458366 C284.535471,165.084526 284.631079,155.697972 290.767857,153.365853 C291.63101,153.03882 292.613895,152.849391 293.720088,152.835095 C302.687576,152.718042 309.352432,171.196286 309.352432,171.196286 L309.352432,161.271825 C309.352432,161.271825 331.564747,196.436781 335.154065,219.824091 C335.199636,219.658788 335.239845,219.491697 335.281841,219.321032 C336.087807,215.908633 335.946628,211.507988 335.281841,206.952761 C333.910269,197.55459 330.314695,187.496993 328.20864,184.097996 C325.025879,178.964654 329.212077,178.676937 335.154065,188.809591 L335.281841,189.027613 C341.386452,199.413137 362.006493,233.001009 358.227745,270.68662 C366.181968,262.798518 361.717882,227.542421 361.208568,222.058815 C360.693894,216.571634 367.663444,217.512523 371.625366,231.732194 C375.589968,245.955438 383.70592,274.83797 374.356894,292.519184 C387.740218,276.902029 387.296132,248.12136 388.498826,237.440077 C389.699734,226.758794 390.920298,188.940047 372.868269,165.736805 L372.868269,165.736805 Z" id="Fill-114" sketch:type="MSShapeGroup"></path>
            </g>
        </g>
    </g>
</svg>