<?xml version="1.0" encoding="UTF-8" standalone="no"?>
<svg width="40px" height="34px" viewBox="0 0 40 34" version="1.1" xmlns="http://www.w3.org/2000/svg" xmlns:xlink="http://www.w3.org/1999/xlink" xmlns:sketch="http://www.bohemiancoding.com/sketch/ns">
    <!-- Generator: Sketch 3.3.3 (12072) - http://www.bohemiancoding.com/sketch -->
    <title>Fill 110</title>
    <desc>Created with Sketch.</desc>
    <defs></defs>
    <g id="Page-1" stroke="none" stroke-width="1" fill="none" fill-rule="evenodd" sketch:type="MSPage">
        <g id="Desktop-V2" sketch:type="MSArtboardGroup" transform="translate(-34.000000, -35.000000)" fill="#FFFFFF">
            <g id="Menu" sketch:type="MSLayerGroup">
                <g id="Logo-Setting" transform="translate(20.000000, 18.000000)" sketch:type="MSShapeGroup">
                    <path d="M14.8295295,17.0097397 C15.1972731,17.0259888 15.6770503,17.0485095 16.0199926,17.0428081 C16.36322,17.0371066 16.7266876,17.1314657 17.1112505,17.1417283 C17.4963835,17.152276 17.8034067,17.380049 18.3350671,17.3734923 C18.8667275,17.3669356 19.1842983,17.8495635 19.7242258,17.8695186 C20.2638682,17.8894737 20.70288,18.263774 21.1792363,18.2666247 C21.6553075,18.2689053 21.9457965,18.6229654 22.336631,18.6634457 C22.7271804,18.703641 23.0781048,19.0371759 23.4940257,19.1261186 C23.9099466,19.2153463 23.6302904,19.5890764 24.1887476,19.7213501 C24.7466346,19.8533387 25.066201,20.2247883 25.4784159,20.2507299 C25.8906309,20.2769566 26.0602491,20.832278 26.4040466,20.9120983 C26.7481292,20.9919186 26.7233279,21.3838934 27.2643957,21.6065351 C27.8051784,21.8288917 27.9383073,22.1296433 28.2561632,22.3009719 C28.5745893,22.4720155 28.5455119,22.7653552 28.9175316,22.8962035 C29.2898364,23.0273369 29.567212,23.4281489 29.9429377,23.6237087 C30.3183783,23.8192685 31.4729223,24.0079866 32.3566473,24.0535982 C33.2409424,24.0992098 33.9581851,24.1183097 34.7712121,24.6157613 C35.583954,25.113213 35.7806541,25.1126429 35.630991,24.8805938 C35.4810428,24.6482596 34.8692771,24.0632907 34.4735963,23.6901306 C34.0773454,23.3169706 33.8475769,23.1239765 33.348985,22.6316561 C32.850393,22.1393358 33.101827,22.1296433 33.9445016,22.3009719 C35.2284685,22.5820535 35.7532871,23.1239765 36.5566217,23.2930245 C37.3608115,23.4617875 38.0449857,24.0909427 38.8052742,24.4504192 C39.566133,24.8104659 38.9289957,23.7870553 38.7394225,23.3922298 C38.5504194,22.9974043 37.9623146,22.3508596 37.4828225,21.9041509 C37.0036155,21.4574422 36.6643791,20.832278 35.796048,20.3827185 C34.9282871,19.9340143 34.2897245,19.2854741 33.6796692,19.0271984 C33.0698989,18.7686375 32.8532437,18.5123573 33.1505744,18.4981036 C33.4476201,18.4835649 33.9581851,18.4847052 34.5397331,18.7292975 C35.1209961,18.9741749 35.5873749,19.23017 36.1928691,19.4898712 C36.7986483,19.7498574 37.1062416,20.0859579 37.7804383,20.2837983 C38.45492,20.4807835 38.5421522,21.0529242 39.169597,21.2758509 C39.7964716,21.4984926 39.8124357,21.9643012 40.3597751,22.3337553 C40.9073995,22.7037795 41.1103712,23.2345847 41.6494434,23.557857 C42.1890858,23.8805591 42.4083067,24.6434134 42.8071232,24.979514 C43.2062248,25.3164697 43.1264045,25.9963679 43.5018451,26.2033306 C43.8770006,26.4100082 44.0651485,26.4935345 44.4938977,27.4602156 C44.9223618,28.4263266 45.0318297,27.4602156 44.9235021,27.1292463 C44.8154596,26.7982771 44.6176192,26.1622801 45.2875398,26.9969726 C45.9571753,27.8319502 46.1364859,29.0891203 46.2134555,29.7416515 C46.2904251,30.3944677 46.7436905,30.3596889 47.0070976,30.7337041 C47.2705047,31.1080044 47.4891553,31.1330908 47.3708502,30.7670576 C47.2525451,30.4010244 47.130249,30.0284345 47.5031239,30.2710313 C47.8759988,30.5136281 48.0419111,30.8012663 48.1978458,31.825247 C48.3537805,32.8489427 48.925351,33.5636197 49.6856396,33.7762838 C50.4462133,33.9895181 49.7261199,34.5853198 49.2891037,34.570211 C48.8518023,34.5551021 48.6494008,34.833618 49.1234765,35.2646478 C49.5981223,35.6953924 49.9470512,36.0488825 50.5457036,36.6201679 C51.144356,37.1920235 51.1899677,36.8496513 51.0747983,36.455396 C50.959629,36.0602854 51.0240554,35.8829702 51.5046878,36.2564153 C51.9853202,36.6304305 52.432314,36.9599744 53.4226561,38.7368319 C54.4129983,40.5139744 53.8408576,41.0749972 53.7864088,42.5066317 C53.732245,43.9385513 53.5922743,44.7199353 53.1911772,45.6156334 C52.7900801,46.5107613 52.7915054,46.1840681 52.3978202,45.6814851 C52.0038499,45.1791872 51.6591971,46.1564161 51.7689501,46.4754123 C51.8795582,46.7944085 52.1284266,47.2057682 52.0668509,48.2944604 C52.0049902,49.3828676 51.6315451,48.7525721 51.4382659,48.3605973 C51.2452717,47.9680523 51.0793595,47.6199787 51.0089466,48.4925859 C50.9376784,49.3651931 50.0824607,50.6423183 50.0824607,50.6423183 C50.0824607,50.6423183 49.8917471,50.3538248 49.6856396,49.5507753 C49.4798172,48.7480109 49.1565449,47.6992289 49.1565449,47.6992289 L48.3959712,48.8232701 C48.3959712,48.8232701 47.8480617,47.6199787 47.668466,46.7068912 C47.4885852,45.7938037 46.4124362,45.5762933 45.386745,44.887843 C44.3610539,44.1991077 43.1264045,44.5545932 42.476439,44.9209115 C40.2802398,46.3371521 38.3765251,46.8192098 37.3836173,46.376207 C36.3909945,45.9329191 35.9739333,46.5153224 35.5979226,47.2029175 C35.2219118,47.8902275 35.6150269,48.669616 34.9032007,49.5838438 C34.1916595,50.4980715 33.0470931,50.1334637 31.8611911,50.0798701 C30.6750041,50.0268466 28.4628408,50.8236244 26.900358,50.6089648 C25.3381602,50.3948753 23.7682655,48.7525721 23.4278888,47.8973543 C23.0875122,47.0424217 21.8354734,46.2120052 20.7493468,46.2108649 C19.6632203,46.2100097 20.0953903,45.0794118 19.9554197,44.5899422 C19.8157341,44.1013278 18.9633671,43.6429311 19.029789,43.3336273 C19.0956407,43.0243236 19.5708567,42.7597762 19.8892828,42.3749282 C20.207994,41.989225 20.7858361,41.2962135 20.2202521,41.4487274 C19.654383,41.6012412 19.1617776,41.5810011 19.1617776,41.5810011 C19.1617776,41.5810011 19.3772925,41.2962135 19.7906477,40.6217318 C20.2031477,39.9481053 20.5375379,39.5561305 21.2784415,39.0016643 C22.0193452,38.446628 22.9401296,37.8439845 22.1712889,37.7447793 C21.4027332,37.6458591 20.8134881,38.0919977 20.0215565,38.2077371 C21.052379,36.3903994 24.4034072,35.1648724 25.246937,34.6029943 C24.9028544,34.1517244 22.4027678,34.5371425 22.4027678,34.5371425 C22.4027678,34.5371425 22.9401296,33.7010246 24.3207362,33.081847 C23.9347479,32.6003594 21.6752626,32.056726 21.6752626,32.056726 C21.6752626,32.056726 22.1667277,31.7958846 23.1636265,31.6926883 C24.1602403,31.5903472 24.7349466,31.6302574 26.3381949,31.9572356 C25.9256948,31.7873324 24.8498309,30.4363734 24.8498309,30.4363734 C24.8498309,30.4363734 26.833651,31.2434139 27.4294527,31.3292207 C25.7885749,28.4599652 18.3005733,27.901508 17.4422197,27.7908998 C21.8032602,25.9946574 28.4215053,27.3610103 28.4215053,27.3610103 C28.4215053,27.3610103 27.689724,26.3549892 27.4294527,26.0379885 C27.1694665,25.7201325 26.5294786,25.4718343 25.9083054,25.2771297 C25.2868472,25.0832804 24.2654321,25.277985 23.7255046,25.0787192 C23.1858622,24.8794535 22.1114236,24.7811034 21.6094108,24.7483201 C22.5980425,24.0798249 25.7429633,24.0869517 25.7429633,24.0869517 C25.7429633,24.0869517 25.3424363,23.4004969 25.0485265,23.1941043 C24.7546166,22.9874267 23.6579424,22.1855175 23.2294783,21.837729 C22.8012993,21.4905106 22.2770508,21.2464884 21.9067415,20.9451667 C21.5361471,20.643845 20.9517483,20.4177824 20.5178679,20.0851027 C20.0839874,19.7527081 18.853044,19.3131262 18.3681355,18.9935598 C17.8835121,18.6745636 17.195917,18.6779844 16.7149996,18.3655449 C16.233512,18.0533904 15.1248647,18.0425577 14.7633927,17.8695186 C14.4024908,17.6964795 14.0478605,17.5183092 14.002819,17.2412186 C13.9577775,16.9641281 14.4620709,16.9934905 14.8295295,17.0097397" id="Fill-110"></path>
                </g>
            </g>
        </g>
    </g>
</svg>